<?xml version="1.0" encoding="UTF-8"?>
<svg width="80px" height="240px" viewBox="0 0 80 240" version="1.1" xmlns="http://www.w3.org/2000/svg" xmlns:xlink="http://www.w3.org/1999/xlink">
    <!-- Generator: sketchtool 63.1 (101010) - https://sketch.com -->
    <title>14B89CF4-BE13-43DC-9256-2582BE98B507</title>
    <desc>Created with sketchtool.</desc>
    <g id="Page-1" stroke="none" stroke-width="1" fill="none" fill-rule="evenodd">
        <g id="Lenovo-Yoga-S740-14IIL" fill-rule="nonzero">
            <g id="lenovo-logo-01">
                <path d="M42.8595393,111.212984 C47.7176042,111.212984 51.5242513,107.583543 51.5242513,102.952695 C51.5242513,98.2322764 47.8491058,94.8059141 42.8595393,94.8059141 C38.0002471,94.8059141 34.1935958,98.4352335 34.1935958,103.06702 C34.1935958,107.787447 37.7701654,111.212984 42.8595393,111.212984 Z" id="Path" fill="#FFFFFF"></path>
                <path d="M0,239.912159 L79.9715728,239.912159 L79.9715728,0 L0,0 L0,239.912159 Z M42.8595393,21.3975581 C51.7778555,21.3975581 58.766555,28.6884482 58.766555,37.995644 C58.766555,47.2390366 51.880511,54.4803267 42.8595393,54.4803267 C33.9391791,54.4803267 26.9508733,47.1889298 26.9508733,37.8813194 C26.9508733,28.6389487 33.8367162,21.3975581 42.8595393,21.3975581 Z M27.4701571,62.8250764 L27.4701571,53.1712209 L58.2385215,65.8359581 L58.2385215,75.0958157 L27.4701571,87.7605529 L27.4701571,78.1066974 L48.4366995,70.4658848 L27.4701571,62.8250764 Z M42.859556,86.468934 C51.7778723,86.468934 58.7665717,93.7598241 58.7665717,103.06702 C58.7665717,112.310413 51.8805277,119.551703 42.859556,119.551703 C33.9391958,119.551703 26.9508901,112.260306 26.9508901,102.952695 C26.9508901,93.7102199 33.8367162,86.468934 42.8595393,86.468934 L42.859556,86.468934 Z M40.7344168,145.431326 L58.2477152,145.431326 L58.2477152,153.882526 L27.4678911,153.882526 L27.4678911,145.429483 L31.8797026,145.431326 L31.8774534,145.429483 L31.8833843,145.431326 C28.7868633,143.019814 26.9690315,139.320065 26.9523058,135.39533 C26.9523058,127.959342 32.0895372,122.895535 39.1674178,122.895535 L58.2477152,122.895535 L58.2477152,131.347246 L40.7344126,131.347246 C36.6635267,131.347246 34.2316314,134.965642 34.2316314,138.463166 C34.231623,142.987975 37.5818052,145.431326 40.7344168,145.431326 Z M31.9932105,160.609152 C34.44641,158.584245 37.4279432,157.303827 40.5855497,156.919175 L49.5498806,178.526463 C51.1395812,176.914777 52.0459979,174.629826 52.0459979,171.710366 C52.0459979,168.466748 51.416888,166.434371 48.7847874,162.876616 L52.8937131,157.53262 C56.0600251,160.267506 58.7710869,166.115631 58.7710869,171.835326 C58.7710869,182.043828 52.1515267,189.06751 42.8622199,189.06751 C33.807489,189.06751 26.9508942,182.059472 26.9508942,172.765562 C26.9508942,167.65032 28.6947812,163.447828 31.9932105,160.609152 Z M18.2644649,209.083359 L50.4873592,209.083359 L50.4873592,189.872997 L58.247711,189.872997 L58.247711,217.649005 L18.2644649,217.649005 L18.2644649,209.083359 Z" id="Shape" fill="#FFFFFF"></path>
                <path d="M36.7424754,179.114241 C38.5058262,180.427539 40.9648838,181.232004 44.1075016,180.827983 L37.9818471,166.062459 C35.4153801,167.256318 33.6761801,169.566936 33.6761801,172.613097 C33.6761801,175.382036 34.8102115,177.675166 36.7424754,179.114241 Z" id="Path" fill="#FFFFFF"></path>
                <path d="M42.8595393,46.1416084 C47.7176042,46.1416084 51.5242513,42.5121675 51.5242513,37.8813194 C51.5242513,33.1609005 47.8491058,29.7344377 42.8595393,29.7344377 C38.0002471,29.7344377 34.1935958,33.3638743 34.1935958,37.995644 C34.1935958,42.7160712 37.7701654,46.1416084 42.8595393,46.1416084 Z" id="Path" fill="#FFFFFF"></path>
                <path d="M40.7344168,131.347246 L58.2477152,131.347246 L58.2477152,122.895535 L39.1674178,122.895535 C32.0895372,122.895535 26.9523058,127.959342 26.9523058,135.39533 C26.9690315,139.320065 28.7868633,143.019814 31.8833843,145.431326 L31.8774534,145.429483 L31.8797026,145.431326 L27.4678911,145.429483 L27.4678911,153.882526 L58.2477152,153.882526 L58.2477152,145.431326 L40.7344126,145.431326 C37.581801,145.431326 34.2316314,142.987975 34.2316314,138.463166 C34.231623,134.965642 36.6635309,131.347246 40.7344168,131.347246 Z" id="Path" fill="#408DDC"></path>
                <polygon id="Path" fill="#408DDC" points="27.4701571 87.7604188 58.2383246 75.0957068 58.2383246 65.8358115 27.4701571 53.1710995 27.4701571 62.8251309 48.4368586 70.4657592 27.4701571 78.1068063"></polygon>
                <path d="M42.862199,189.06751 C52.1515058,189.06751 58.771066,182.043845 58.771066,171.835326 C58.771066,166.115631 56.0600042,160.267506 52.8936921,157.53262 L48.7847665,162.876616 C51.4168838,166.434371 52.045977,168.466748 52.045977,171.710366 C52.045977,174.629826 51.1395602,176.914777 49.5498597,178.526463 L40.5855497,156.919175 C37.4279506,157.30383 34.4464251,158.584249 31.9932314,160.609152 C28.6948021,163.447828 26.9508942,167.65032 26.9508942,172.765562 C26.9508942,182.059476 33.8074681,189.06751 42.862199,189.06751 Z M37.9818387,166.062459 L44.1074932,180.827983 C40.9649047,181.232004 38.5058178,180.427539 36.742467,179.114241 C34.8102031,177.675166 33.6761634,175.382036 33.6761634,172.613097 C33.6761634,169.566936 35.4153717,167.256318 37.9818387,166.062459 Z" id="Shape" fill="#408DDC"></path>
                <polygon id="Path" fill="#408DDC" points="58.2475393 189.873089 50.4875393 189.873089 50.4875393 209.08356 18.2642932 209.08356 18.2642932 217.649005 58.2475393 217.649005"></polygon>
                <path d="M42.8595393,54.4803267 C51.8805236,54.4803267 58.766555,47.2390366 58.766555,37.995644 C58.766555,28.6884188 51.7778429,21.3975581 42.8595393,21.3975581 C33.836712,21.3975581 26.9508733,28.6389487 26.9508733,37.8813277 C26.9508733,47.1889298 33.9391791,54.4803267 42.8595393,54.4803267 Z M42.8595393,29.7344377 C47.8491099,29.7344377 51.5242513,33.1608921 51.5242513,37.8813194 C51.5242513,42.5121675 47.7176,46.1416084 42.8595393,46.1416084 C37.7701654,46.1416084 34.1935958,42.7160712 34.1935958,37.995644 C34.1935958,33.3638743 38.0002471,29.7344377 42.8595393,29.7344377 L42.8595393,29.7344377 Z" id="Shape" fill="#408DDC"></path>
                <path d="M42.8595393,119.551703 C51.8805236,119.551703 58.766555,112.310413 58.766555,103.06702 C58.766555,93.7598157 51.7778429,86.468934 42.8595393,86.468934 C33.836712,86.468934 26.9508733,93.7102199 26.9508733,102.952704 C26.9508733,112.260306 33.9391791,119.551703 42.8595393,119.551703 Z M42.8595393,94.8059141 C47.8491099,94.8059141 51.5242513,98.2322681 51.5242513,102.952695 C51.5242513,107.583543 47.7176,111.212984 42.8595393,111.212984 C37.7701654,111.212984 34.1935958,107.787447 34.1935958,103.06702 C34.1935958,98.4352503 38.0002471,94.8059141 42.8595393,94.8059141 Z" id="Shape" fill="#408DDC"></path>
            </g>
        </g>
    </g>
</svg>